<svg aria-hidden="true" style="position:absolute;width:0;height:0" xmlns="http://www.w3.org/2000/svg" overflow="hidden">
<defs>

<symbol id="moon" viewBox="0 0 32 32">
<path fill="currentColor" d="M17.701 32a15.97 15.97 0 0012.429-5.925c.442-.544-.04-1.339-.723-1.209-7.763 1.478-14.891-4.474-14.891-12.31 0-4.514 2.416-8.665 6.344-10.9.605-.345.453-1.262-.235-1.389-.879-.17-1.89-.267-2.923-.268-8.832 0-16 7.157-16 16 0 8.832 7.157 16 16 16z"/>
</symbol>

<symbol id="sun" viewBox="0 0 32 32">
<path fill="currentColor" d="M16 10c-3.306 0-6 2.694-6 6s2.694 6 6 6 6-2.694 6-6-2.694-6-6-6zm15.4 5.031l-5.919-2.956L27.575 5.8c.281-.85-.525-1.656-1.369-1.369l-6.275 2.094L16.969.6c-.4-.8-1.537-.8-1.938 0l-2.956 5.919-6.281-2.094c-.85-.281-1.656.525-1.369 1.369l2.094 6.275L.6 15.032c-.8.4-.8 1.538 0 1.938l5.919 2.956-2.094 6.281c-.281.85.525 1.656 1.369 1.369l6.275-2.094 2.956 5.919c.4.8 1.538.8 1.938 0l2.956-5.919 6.275 2.094c.85.281 1.656-.525 1.369-1.369l-2.094-6.275 5.919-2.956c.813-.406.813-1.544.012-1.944zm-9.744 6.625c-3.119 3.119-8.194 3.119-11.313 0s-3.119-8.194 0-11.313c3.119-3.119 8.194-3.119 11.313 0s3.119 8.194 0 11.313z"/>
</symbol>

<symbol id="home" viewBox="0 0 16 16">
<path fill="currentColor" d="M16 9.226l-8-6.21-8 6.21v-2.532l8-6.21 8 6.21zM14 9v6h-4v-4h-4v4h-4v-6l6-4.5z"></path>
</symbol>

<symbol id="WiFi" viewBox="0 0 40 32">
<path fill="currentColor" d="M20 18c3.308 0 6.308 1.346 8.481 3.519l-2.827 2.827c-1.449-1.449-3.449-2.346-5.654-2.346s-4.206 0.897-5.654 2.346l-2.827-2.827c2.173-2.173 5.173-3.519 8.481-3.519zM5.858 15.858c3.777-3.777 8.8-5.858 14.142-5.858s10.365 2.080 14.142 5.858l-2.828 2.828c-3.022-3.022-7.040-4.686-11.314-4.686s-8.292 1.664-11.314 4.686l-2.828-2.828zM30.899 4.201c3.334 1.41 6.329 3.429 8.899 6v0l-2.828 2.828c-4.533-4.533-10.56-7.029-16.971-7.029s-12.438 2.496-16.971 7.029l-2.828-2.828c2.571-2.571 5.565-4.589 8.899-6 3.453-1.461 7.12-2.201 10.899-2.201s7.446 0.741 10.899 2.201zM18 28c0-1.105 0.895-2 2-2s2 0.895 2 2c0 1.105-0.895 2-2 2s-2-0.895-2-2z"></path>
</symbol>

<symbol id="airplane" viewBox="0 0 32 32">
<path fill="currentColor" d="M24 19.999l-5.713-5.713 13.713-10.286-4-4-17.141 6.858-5.397-5.397c-1.556-1.556-3.728-1.928-4.828-0.828s-0.727 3.273 0.828 4.828l5.396 5.396-6.858 17.143 4 4 10.287-13.715 5.713 5.713v7.999h4l2-6 6-2v-4l-7.999 0z"></path>
</symbol>

<symbol id="contrast" viewBox="0 0 32 32">
<path fill="currentColor" d="M16 0c-8.837 0-16 7.163-16 16s7.163 16 16 16 16-7.163 16-16-7.163-16-16-16zM4 16c0-6.627 5.373-12 12-12v24c-6.627 0-12-5.373-12-12z"></path>
</symbol>

<symbol id="refresh" viewBox="0 0 18 18">
<path fill="currentColor" d="M10 3v2c-0.003 0-0.006 0-0.009 0-2.761 0-5 2.239-5 5 0 1.383 0.561 2.635 1.469 3.54l0 0-1.41 1.41c-1.267-1.267-2.051-3.017-2.051-4.95 0-3.866 3.134-7 7-7 0 0 0 0 0.001 0h-0zM14.95 5.050c1.267 1.267 2.051 3.017 2.051 4.95 0 3.866-3.134 7-7 7-0 0-0 0-0.001 0h0v-2c0.003 0 0.006 0 0.009 0 2.761 0 5-2.239 5-5 0-1.383-0.561-2.635-1.469-3.54l-0-0 1.41-1.41zM10 20l-4-4 4-4v8zM10 8v-8l4 4-4 4z"></path>
</symbol>

<symbol id="fa-cloud" viewBox="0 0 640 512">
<path d="M0 336c0 79.5 64.5 144 144 144H512c70.7 0 128-57.3 128-128c0-61.9-44-113.6-102.4-125.4c4.1-10.7 6.4-22.4 6.4-34.6c0-53-43-96-96-96c-19.7 0-38.1 6-53.3 16.2C367 64.2 315.3 32 256 32C167.6 32 96 103.6 96 192c0 2.7 .1 5.4 .2 8.1C40.2 219.8 0 273.2 0 336z"></path>
</symbol>

<symbol id="fa-bolt" viewBox="0 0 448 512">
<path d="M349.4 44.6c5.9-13.7 1.5-29.7-10.6-38.5s-28.6-8-39.9 1.8l-256 224c-10 8.8-13.6 22.9-8.9 35.3S50.7 288 64 288H175.5L98.6 467.4c-5.9 13.7-1.5 29.7 10.6 38.5s28.6 8 39.9-1.8l256-224c10-8.8 13.6-22.9 8.9-35.3s-16.6-20.7-30-20.7H272.5L349.4 44.6z"></path>
</symbol>

</defs>
</svg>